<?xml version="1.0" encoding="UTF-8" standalone="no"?>
<!-- Created with Inkscape (http://www.inkscape.org/) -->

<svg
   width="150.021mm"
   height="150.646mm"
   viewBox="0 0 150.021 150.646"
   version="1.1"
   id="svg1"
   inkscape:version="1.3.2 (091e20e, 2023-11-25)"
   sodipodi:docname="trapez.svg"
   xmlns:inkscape="http://www.inkscape.org/namespaces/inkscape"
   xmlns:sodipodi="http://sodipodi.sourceforge.net/DTD/sodipodi-0.dtd"
   xmlns="http://www.w3.org/2000/svg"
   xmlns:svg="http://www.w3.org/2000/svg">
  <sodipodi:namedview
     id="namedview1"
     pagecolor="#ffffff"
     bordercolor="#000000"
     borderopacity="0.25"
     inkscape:showpageshadow="2"
     inkscape:pageopacity="0.0"
     inkscape:pagecheckerboard="0"
     inkscape:deskcolor="#d1d1d1"
     inkscape:document-units="mm"
     inkscape:zoom="0.9771313"
     inkscape:cx="130.484"
     inkscape:cy="157.0925"
     inkscape:window-width="1920"
     inkscape:window-height="1052"
     inkscape:window-x="1440"
     inkscape:window-y="28"
     inkscape:window-maximized="0"
     inkscape:current-layer="layer1" />
  <defs
     id="defs1">
    <marker
       style="overflow:visible"
       id="marker3"
       refX="0"
       refY="0"
       orient="auto-start-reverse"
       inkscape:stockid="Triangle arrow"
       markerWidth="1"
       markerHeight="1"
       viewBox="0 0 1 1"
       inkscape:isstock="true"
       inkscape:collect="always"
       preserveAspectRatio="xMidYMid">
      <path
         transform="scale(0.5)"
         style="fill:context-stroke;fill-rule:evenodd;stroke:context-stroke;stroke-width:1pt"
         d="M 5.77,0 -2.88,5 V -5 Z"
         id="path3" />
    </marker>
    <marker
       style="overflow:visible"
       id="Triangle"
       refX="0"
       refY="0"
       orient="auto-start-reverse"
       inkscape:stockid="Triangle arrow"
       markerWidth="1"
       markerHeight="1"
       viewBox="0 0 1 1"
       inkscape:isstock="true"
       inkscape:collect="always"
       preserveAspectRatio="xMidYMid">
      <path
         transform="scale(0.5)"
         style="fill:context-stroke;fill-rule:evenodd;stroke:context-stroke;stroke-width:1pt"
         d="M 5.77,0 -2.88,5 V -5 Z"
         id="path135" />
    </marker>
  </defs>
  <g
     inkscape:label="Layer 1"
     inkscape:groupmode="layer"
     id="layer1"
     transform="translate(-39.567715,-46.293981)">
    <g
       id="g10"
       transform="translate(10.000164,9.5000254)">
      <text
         xml:space="preserve"
         style="font-style:normal;font-variant:normal;font-weight:normal;font-stretch:normal;font-size:7.05556px;font-family:Arial;-inkscape-font-specification:Arial;text-align:center;letter-spacing:0px;writing-mode:lr-tb;text-anchor:middle;opacity:0.997821;fill:#000000;fill-opacity:1;stroke:none;stroke-width:1;stroke-dasharray:none;paint-order:fill markers stroke"
         x="155.23662"
         y="159.81244"
         id="text3"><tspan
           sodipodi:role="line"
           id="tspan3"
           style="font-style:normal;font-variant:normal;font-weight:normal;font-stretch:normal;font-family:Arial;-inkscape-font-specification:Arial;writing-mode:lr-tb;fill:#000000;fill-opacity:1;stroke:none;stroke-width:1"
           x="155.23662"
           y="159.81244">x</tspan></text>
      <text
         xml:space="preserve"
         style="font-style:normal;font-variant:normal;font-weight:normal;font-stretch:normal;font-size:7.05556px;font-family:Arial;-inkscape-font-specification:Arial;text-align:center;letter-spacing:0px;writing-mode:lr-tb;text-anchor:middle;opacity:0.997821;fill:#000000;fill-opacity:1;stroke:none;stroke-width:1;stroke-dasharray:none;paint-order:fill markers stroke"
         x="46.772163"
         y="49.952675"
         id="text4"><tspan
           sodipodi:role="line"
           id="tspan4"
           style="stroke-width:1"
           x="46.772163"
           y="49.952675">y</tspan></text>
      <path
         style="fill:none;fill-rule:evenodd;stroke:#2800d5;stroke-width:1.00308;stroke-dasharray:none;stroke-opacity:1"
         d="m 50.497794,109.94984 c 0.333782,-0.39417 0.667564,-0.78646 1.001345,-1.17687 0.333782,-0.39041 0.667564,-0.77896 1.001216,-1.16559 0.333911,-0.38679 0.667822,-0.77156 1.001732,-1.15445 0.333911,-0.38288 0.667821,-0.76387 1.001732,-1.14298 0.332621,-0.37895 0.666532,-0.75617 1.000443,-1.13121 0.33391,-0.37518 0.667821,-0.74833 1.001731,-1.11943 0.333911,-0.37126 0.667822,-0.74032 1.001732,-1.1075 0.333911,-0.36718 0.666532,-0.73217 1.000443,-1.09527 0.33391,-0.36309 0.667821,-0.72399 1.001732,-1.082855 0.33391,-0.358858 0.667821,-0.715676 1.001731,-1.070298 0.333911,-0.354776 0.667822,-0.707356 1.000443,-1.057739 0.333911,-0.350381 0.667821,-0.698567 1.001732,-1.04471 0.33391,-0.346145 0.667821,-0.689931 1.001732,-1.031681 0.33391,-0.341748 0.667821,-0.681141 1.001731,-1.018493 0.332622,-0.337197 0.666532,-0.672352 1.000443,-1.004995 0.333911,-0.3328 0.667821,-0.663403 1.001732,-0.991651 0.33391,-0.328248 0.667821,-0.654142 1.001732,-0.977836 0.33391,-0.323538 0.666532,-0.644878 1.000442,-0.963865 0.333911,-0.318985 0.667821,-0.635773 1.001732,-0.95005 0.333911,-0.314276 0.667821,-0.626198 1.001732,-0.935764 0.33391,-0.309569 0.667821,-0.616624 1.000442,-0.921481 0.333911,-0.304701 0.667822,-0.607047 1.001732,-0.906882 0.333911,-0.29999 0.667821,-0.59747 1.001732,-0.892438 0.333911,-0.294969 0.667821,-0.587582 1.001732,-0.877525 0.332621,-0.290102 0.666532,-0.577692 1.000442,-0.86277 0.333911,-0.285076 0.667822,-0.567642 1.001732,-0.847698 0.333911,-0.280055 0.667821,-0.557441 1.001732,-0.832471 0.333911,-0.274875 0.666532,-0.547237 1.000443,-0.817088 0.33391,-0.269849 0.667821,-0.53719 1.001731,-0.801703 0.333911,-0.26467 0.667822,-0.526828 1.001732,-0.786163 0.333911,-0.259488 0.667821,-0.51631 1.000443,-0.770462 0.33391,-0.254311 0.667821,-0.505793 1.001732,-0.754767 0.33391,-0.248815 0.667821,-0.495118 1.001731,-0.738596 0.333911,-0.243635 0.667822,-0.484443 1.001732,-0.722586 0.332622,-0.238295 0.666532,-0.473769 1.000443,-0.706571 0.33391,-0.232647 0.667821,-0.462782 1.001732,-0.69009 0.33391,-0.22731 0.667821,-0.451949 1.001731,-0.673765 0.333911,-0.221815 0.666532,-0.440959 1.000443,-0.65728 0.333911,-0.216321 0.667821,-0.429814 1.001732,-0.640484 0.33391,-0.210825 0.667821,-0.418825 1.001732,-0.623999 0.33391,-0.205176 0.667821,-0.407524 1.000442,-0.607047 0.333911,-0.199524 0.667821,-0.396219 1.001732,-0.590093 0.333911,-0.193873 0.667821,-0.384919 1.001732,-0.573139 0.33391,-0.188219 0.667821,-0.373615 1.001732,-0.556026 0.332621,-0.182414 0.666532,-0.362157 1.000442,-0.538762 0.333911,-0.176759 0.667821,-0.350695 1.001732,-0.521648 0.333911,-0.170953 0.667821,-0.338923 1.001732,-0.504067 0.333911,-0.165145 0.666532,-0.327462 1.000442,-0.486799 0.333911,-0.159335 0.667822,-0.315689 1.001732,-0.469216 0.333911,-0.153363 0.667819,-0.303916 1.001729,-0.451479 0.33391,-0.147561 0.66782,-0.292298 1.00045,-0.433896 0.33391,-0.14176 0.66782,-0.280525 1.00173,-0.416157 0.33391,-0.135781 0.66782,-0.268594 1.00173,-0.398419 0.33391,-0.129833 0.66782,-0.256664 1.00173,-0.380366 0.33391,-0.123856 0.66653,-0.244733 1.00044,-0.362626 0.33391,-0.117743 0.66782,-0.232645 1.00173,-0.344416 0.33391,-0.111931 0.66782,-0.220716 1.00173,-0.326519 0.33392,-0.105805 0.66783,-0.20863 1.00045,-0.308313 0.33391,-0.09984 0.66782,-0.196542 1.00173,-0.290258 0.33391,-0.09372 0.66782,-0.184453 1.00173,-0.272048 0.33391,-0.0876 0.66782,-0.17221 1.00173,-0.253684 0.33262,-0.08163 0.66653,-0.16012 1.00045,-0.235472 0.33391,-0.07552 0.66782,-0.147876 1.00173,-0.217261 0.33391,-0.06924 0.66782,-0.135467 1.00173,-0.198738 0.33391,-0.06326 0.66653,-0.123378 1.00044,-0.180372 0.33391,-0.05715 0.66782,-0.111152 1.00173,-0.162005 0.33392,-0.05086 0.66783,-0.09875 1.00174,-0.143474 0.33391,-0.04474 0.66782,-0.08649 1.00044,-0.125114 0.33391,-0.03862 0.66782,-0.07409 1.00173,-0.106585 0.33391,-0.03234 0.66782,-0.06169 1.00173,-0.08807 0.33391,-0.0262 0.66782,-0.04944 1.00173,-0.06954 0.33263,-0.02009 0.66654,-0.03703 1.00045,-0.05086 0.33391,-0.01399 0.66782,-0.02481 1.00173,-0.03249 0.33391,-0.0077 0.66782,-0.01244 1.00173,-0.01399 0.33391,-0.0015 0.66653,0 1.00044,0.0046 0.33391,0.0045 0.66782,0.01244 1.00174,0.02308 0.33391,0.0108 0.66782,0.02481 1.00173,0.04176 0.33391,0.01711 0.66782,0.03721 1.00044,0.06028 0.33391,0.02323 0.66782,0.04945 1.00173,0.07881 0.33391,0.02935 0.66782,0.06185 1.00173,0.09733 0.33391,0.03549 0.66782,0.07409 1.00173,0.115856 0.33263,0.0416 0.66654,0.08635 1.00045,0.134209 0.33391,0.04788 0.66782,0.09875 1.00173,0.152749 0.33391,0.054 0.66782,0.111139 1.00173,0.171266 0.33391,0.06012 0.66653,0.123228 1.00044,0.189634 0.33391,0.06626 0.66782,0.135467 1.00174,0.207843 0.33391,0.07237 0.66782,0.147876 1.00173,0.226368 0.33391,0.0785 0.66782,0.159963 1.00044,0.244577 0.33391,0.08461 0.66782,0.172208 1.00173,0.262943 0.33391,0.09072 0.66782,0.184295 1.00173,0.281153 0.33391,0.0967 0.66782,0.196383 1.00174,0.299207 0.33262,0.102824 0.66653,0.208626 1.00044,0.317416 0.33391,0.10895 0.66782,0.220715 1.00173,0.335626 0.33391,0.114749 0.66782,0.232645 1.00173,0.353521 0.33391,0.120725 0.66653,0.244578 1.00044,0.371418 0.33391,0.126838 0.66783,0.256665 1.00174,0.38947 0.33391,0.1328 0.66782,0.268438 1.00173,0.40721 0.33391,0.138774 0.66782,0.280367 1.00044,0.425104 0.33391,0.144575 0.66782,0.292142 1.00173,0.442688"
         title="sin(x)"
         id="path4" />
      <circle
         style="opacity:0.997821;fill:#d55100;fill-opacity:1;stroke:#d55100;stroke-width:0.8;stroke-dasharray:none;stroke-opacity:1;paint-order:fill markers stroke"
         id="path5"
         cx="62.513805"
         cy="96.600937"
         r="1.1225319" />
      <circle
         style="opacity:0.997821;fill:#d55100;fill-opacity:1;stroke:#d55100;stroke-width:0.8;stroke-dasharray:none;stroke-opacity:1;paint-order:fill markers stroke"
         id="path5-4"
         cx="139.61749"
         cy="64.504143"
         r="1.1225319" />
      <rect
         style="fill:none;fill-rule:evenodd;stroke:#17d500;stroke-width:0.4;stroke-dasharray:none;stroke-opacity:1"
         id="rect6"
         width="77.028679"
         height="56.173046"
         x="62.551308"
         y="-153.07607"
         transform="scale(1,-1)" />
      <path
         style="fill:none;fill-opacity:1;stroke:#17d600;stroke-width:0.4;stroke-linecap:butt;stroke-linejoin:miter;stroke-dasharray:none;stroke-opacity:0.74902"
         d="M 62.551307,96.903015 139.6175,64.504138 139.57999,96.903015 Z"
         id="path6" />
      <path
         style="fill:none;stroke:#000000;stroke-width:1;stroke-linecap:butt;stroke-linejoin:miter;stroke-dasharray:none;stroke-opacity:1;marker-end:url(#Triangle);paint-order:fill markers stroke"
         d="M 49.973331,153.07606 H 149.97333"
         id="path2" />
      <path
         style="fill:none;stroke:#000000;stroke-width:1;stroke-linecap:butt;stroke-linejoin:miter;stroke-dasharray:none;stroke-opacity:1;marker-end:url(#marker3)"
         d="M 50.473331,153.57606 V 53.576075"
         id="path1" />
      <path
         style="fill:none;stroke:#000000;stroke-width:0.5;stroke-linecap:butt;stroke-linejoin:miter;stroke-dasharray:none;stroke-opacity:1"
         d="M 62.551307,96.903015 139.61749,64.504143"
         id="path7" />
      <text
         xml:space="preserve"
         style="font-style:normal;font-variant:normal;font-weight:normal;font-stretch:normal;font-size:7.05556px;font-family:Arial;-inkscape-font-specification:Arial;text-align:center;letter-spacing:0px;writing-mode:lr-tb;text-anchor:middle;opacity:0.997821;fill:#000000;fill-opacity:1;stroke:none;stroke-width:0.499999;stroke-dasharray:none;stroke-opacity:0.74902;paint-order:fill markers stroke"
         x="62.177086"
         y="157.98309"
         id="text7"><tspan
           sodipodi:role="line"
           id="tspan7"
           style="fill:#000000;fill-opacity:1;stroke:none;stroke-width:0.5"
           x="63.157215"
           y="157.98309">x<tspan
   style="font-size:65%;baseline-shift:sub"
   id="tspan9">i</tspan> </tspan></text>
      <text
         xml:space="preserve"
         style="font-style:normal;font-variant:normal;font-weight:normal;font-stretch:normal;font-size:7.05556px;font-family:Arial;-inkscape-font-specification:Arial;text-align:center;letter-spacing:0px;writing-mode:lr-tb;text-anchor:middle;opacity:0.997821;fill:#000000;fill-opacity:1;stroke:none;stroke-width:0.499999;stroke-dasharray:none;stroke-opacity:0.74902;paint-order:fill markers stroke"
         x="139.96446"
         y="157.98309"
         id="text7-4"><tspan
           sodipodi:role="line"
           id="tspan7-9"
           style="fill:#000000;fill-opacity:1;stroke:none;stroke-width:0.5"
           x="140.9446"
           y="157.98309">x<tspan
   style="font-size:65%;baseline-shift:sub"
   id="tspan9-5">i+1</tspan> </tspan></text>
      <text
         xml:space="preserve"
         style="font-style:normal;font-variant:normal;font-weight:normal;font-stretch:normal;font-size:7.05556px;font-family:Arial;-inkscape-font-specification:Arial;text-align:center;letter-spacing:0px;writing-mode:lr-tb;text-anchor:middle;opacity:0.997821;fill:#000000;fill-opacity:1;stroke:none;stroke-width:0.499999;stroke-dasharray:none;stroke-opacity:0.74902;paint-order:fill markers stroke"
         x="10.186459"
         y="84.137497"
         id="text8"><tspan
           sodipodi:role="line"
           id="tspan8"
           style="stroke-width:0.5"
           x="10.186459"
           y="84.137497"></tspan></text>
      <text
         xml:space="preserve"
         style="font-style:normal;font-variant:normal;font-weight:normal;font-stretch:normal;font-size:7.05556px;font-family:Arial;-inkscape-font-specification:Arial;text-align:center;letter-spacing:0px;writing-mode:lr-tb;text-anchor:middle;opacity:0.997821;fill:#000000;fill-opacity:1;stroke:none;stroke-width:0.499999;stroke-dasharray:none;stroke-opacity:0.74902;paint-order:fill markers stroke"
         x="46.979622"
         y="97.826813"
         id="text7-3"><tspan
           sodipodi:role="line"
           id="tspan7-2"
           style="fill:#000000;fill-opacity:1;stroke:none;stroke-width:0.5"
           x="47.959751"
           y="97.826813">y<tspan
   style="font-size:65%;baseline-shift:sub"
   id="tspan9-56">i</tspan> </tspan></text>
      <text
         xml:space="preserve"
         style="font-style:normal;font-variant:normal;font-weight:normal;font-stretch:normal;font-size:7.05556px;font-family:Arial;-inkscape-font-specification:Arial;text-align:center;letter-spacing:0px;writing-mode:lr-tb;text-anchor:middle;opacity:0.997821;fill:#000000;fill-opacity:1;stroke:none;stroke-width:0.499999;stroke-dasharray:none;stroke-opacity:0.74902;paint-order:fill markers stroke"
         x="44.341759"
         y="65.62793"
         id="text7-4-6"><tspan
           sodipodi:role="line"
           id="tspan7-9-0"
           style="fill:#000000;fill-opacity:1;stroke:none;stroke-width:0.5"
           x="45.321888"
           y="65.62793">y<tspan
   style="font-size:65%;baseline-shift:sub"
   id="tspan9-5-4">i+1</tspan> </tspan></text>
      <path
         id="path9-7"
         style="fill:none;stroke:#000000;stroke-width:0.5;stroke-linecap:round;stroke-linejoin:miter;stroke-dasharray:none;stroke-opacity:1"
         d="m 100.88613,171.96938 c 8.59447,-11.82172 38.25942,0.0654 38.44076,-11.95852 m -38.44076,11.95852 c -8.594485,-11.82172 -38.259434,0.0654 -38.440771,-11.95852" />
      <text
         xml:space="preserve"
         style="font-style:normal;font-variant:normal;font-weight:normal;font-stretch:normal;font-size:7.05556px;font-family:Arial;-inkscape-font-specification:Arial;text-align:center;letter-spacing:0px;writing-mode:lr-tb;text-anchor:middle;opacity:0.997821;fill:#000000;fill-opacity:1;stroke:none;stroke-width:0.499999;stroke-dasharray:none;stroke-opacity:0.74902;paint-order:fill markers stroke"
         x="100.65063"
         y="177.93993"
         id="text7-33"><tspan
           sodipodi:role="line"
           id="tspan7-8"
           style="fill:#000000;fill-opacity:1;stroke:none;stroke-width:0.5"
           x="101.63076"
           y="177.93993">Δx </tspan></text>
      <path
         id="path9-7-3"
         style="fill:none;stroke:#000000;stroke-width:0.5;stroke-linecap:round;stroke-linejoin:miter;stroke-dasharray:none;stroke-opacity:1"
         d="m 161.23494,80.652983 c -7.98952,-3.620679 0.0442,-16.117928 -8.08197,-16.194322 m 8.08197,16.194322 c -7.98952,3.620683 0.0442,16.117931 -8.08197,16.194326" />
      <text
         xml:space="preserve"
         style="font-style:normal;font-variant:normal;font-weight:normal;font-stretch:normal;font-size:7.05556px;font-family:Arial;-inkscape-font-specification:Arial;text-align:center;letter-spacing:0px;writing-mode:lr-tb;text-anchor:middle;opacity:0.997821;fill:#000000;fill-opacity:1;stroke:none;stroke-width:0.499999;stroke-dasharray:none;stroke-opacity:0.74902;paint-order:fill markers stroke"
         x="165.46805"
         y="83.178238"
         id="text7-33-3"><tspan
           sodipodi:role="line"
           id="tspan7-8-0"
           style="fill:#000000;fill-opacity:1;stroke:none;stroke-width:0.5"
           x="166.44818"
           y="83.178238">Δy </tspan></text>
    </g>
  </g>
</svg>
